<svg width="40" height="40" viewBox="0 0 40 40" fill="none" xmlns="http://www.w3.org/2000/svg">
<path d="M30.0964 23.2348C29.3009 22.5359 28.3363 21.9322 27.2291 21.44C26.7556 21.23 26.202 21.4428 25.9916 21.9163C25.7811 22.3897 25.9944 22.9433 26.4678 23.1537C27.4016 23.5686 28.2059 24.0697 28.8589 24.6434C29.6637 25.3508 30.1255 26.3745 30.1255 27.4531V29.1875C30.1255 29.7045 29.705 30.125 29.188 30.125H10.8125C10.2955 30.125 9.875 29.7045 9.875 29.1875V27.4531C9.875 26.3745 10.3367 25.3503 11.1416 24.6434C12.0889 23.8109 14.8484 21.875 20 21.875C23.8255 21.875 26.9375 18.763 26.9375 14.9375C26.9375 11.112 23.8255 8 20 8C16.1745 8 13.0625 11.112 13.0625 14.9375C13.0625 17.1739 14.1266 19.1661 15.7742 20.4355C12.7587 21.0983 10.8833 22.3742 9.90359 23.2348C8.69375 24.298 8 25.835 8 27.4531V29.1875C8 30.7386 9.26141 32 10.8125 32H29.1875C30.7386 32 32 30.7386 32 29.1875V27.4531C32 25.835 31.3063 24.298 30.0964 23.2348ZM14.9375 14.9375C14.9375 12.1461 17.2086 9.875 20 9.875C22.7914 9.875 25.0625 12.1461 25.0625 14.9375C25.0625 17.7289 22.7914 20 20 20C17.2086 20 14.9375 17.7289 14.9375 14.9375Z" fill="#252830"/>
</svg>
