<svg width="40" height="40" viewBox="0 0 40 40" fill="none" xmlns="http://www.w3.org/2000/svg">
<path d="M31.7874 14.015C31.6093 13.7979 31.3432 13.6721 31.0625 13.6721H14.0588L13.5501 10.7927C13.5007 10.5126 13.3265 10.27 13.0768 10.1334L9.38758 8.11518C8.9333 7.86671 8.36366 8.03352 8.11518 8.4878C7.86671 8.94209 8.03352 9.51173 8.4878 9.7602L11.7821 11.5623L14.4547 26.6942C13.4714 27.1186 12.7814 28.0973 12.7814 29.2344C12.7814 30.7595 14.022 32 15.5471 32C16.7429 32 17.7637 31.2368 18.1486 30.1719H23.6326C24.0175 31.2368 25.0383 32 26.2344 32C27.7593 32 29 30.7595 29 29.2344C29 27.7095 27.7593 26.4688 26.2344 26.4688C25.0383 26.4688 24.0175 27.2319 23.6326 28.2969H18.1486C17.8524 27.4773 17.1793 26.8368 16.3394 26.585L15.996 24.6406H26.9412C28.7231 24.6406 30.2698 23.3723 30.6185 21.6245C30.7199 21.1168 30.3903 20.6231 29.8826 20.5219C29.375 20.4206 28.8812 20.7498 28.7799 21.2576C28.6054 22.1315 27.8322 22.7656 26.9412 22.7656H26.9014L27.5478 15.5471H29.9194L29.5537 17.3792C29.4525 17.887 29.7819 18.3806 30.2896 18.4821C30.3517 18.4943 30.4132 18.5004 30.4742 18.5004C30.912 18.5004 31.3035 18.1918 31.3925 17.7462L31.9819 14.793C32.0368 14.5176 31.9654 14.2322 31.7874 14.015ZM21.2656 15.5471V22.7656H19.4344L18.7878 15.5471H21.2656ZM15.5471 30.125C15.0558 30.125 14.6564 29.7255 14.6564 29.2344C14.6564 28.7433 15.0558 28.3438 15.5471 28.3438C16.0382 28.3438 16.4375 28.7433 16.4375 29.2344C16.4375 29.7255 16.038 30.125 15.5471 30.125ZM26.2344 28.3438C26.7255 28.3438 27.125 28.7433 27.125 29.2344C27.125 29.7255 26.7255 30.125 26.2344 30.125C25.7854 30.125 25.4141 29.7908 25.3535 29.3582C25.3588 29.3177 25.3626 29.2765 25.3626 29.2344C25.3626 29.1923 25.3588 29.1512 25.3535 29.1106C25.4141 28.6781 25.7854 28.3438 26.2344 28.3438ZM14.3898 15.5471H16.9053L17.5519 22.7656H15.6648L14.3898 15.5471ZM25.0189 22.7656H23.1406V15.5471H25.6653L25.0189 22.7656Z" fill="#474E58"/>
</svg>
